<svg width="145" height="145" viewBox="0 0 145 145" fill="none" xmlns="http://www.w3.org/2000/svg">
<circle cx="72.5" cy="72.5" r="72" stroke="url(#paint0_angular)"/>
<circle cx="74" cy="74" r="55" fill="#2D7FFB"/>
<path d="M60.5781 100H47.375V57.7344H60.5781V100ZM46.5938 46.8359C46.5938 44.9609 47.2708 43.4245 48.625 42.2266C49.9792 41.0286 51.737 40.4297 53.8984 40.4297C56.0599 40.4297 57.8177 41.0286 59.1719 42.2266C60.526 43.4245 61.2031 44.9609 61.2031 46.8359C61.2031 48.7109 60.526 50.2474 59.1719 51.4453C57.8177 52.6432 56.0599 53.2422 53.8984 53.2422C51.737 53.2422 49.9792 52.6432 48.625 51.4453C47.2708 50.2474 46.5938 48.7109 46.5938 46.8359ZM80.8125 57.7344L81.2422 62.6953C84.1589 58.8672 88.1823 56.9531 93.3125 56.9531C97.7135 56.9531 100.995 58.2682 103.156 60.8984C105.344 63.5286 106.477 67.487 106.555 72.7734V100H93.3516V73.3203C93.3516 71.1849 92.9219 69.6224 92.0625 68.6328C91.2031 67.6172 89.6406 67.1094 87.375 67.1094C84.7969 67.1094 82.8828 68.125 81.6328 70.1562V100H68.4688V57.7344H80.8125Z" fill="#FFF8F8"/>
<defs>
<radialGradient id="paint0_angular" cx="0" cy="0" r="1" gradientUnits="userSpaceOnUse" gradientTransform="translate(72.5 72.5) rotate(90) scale(72.5)">
<stop stop-color="#2D7FFB"/>
<stop offset="0.536458" stop-color="#2DB1FB"/>
<stop offset="1" stop-color="#2BFDF0"/>
</radialGradient>
</defs>
</svg>
